<svg xmlns="http://www.w3.org/2000/svg" viewBox="0 0 760 210" width="760" height="210">
<defs>
  <marker id="ag" markerWidth="7" markerHeight="7" refX="6" refY="3.5" orient="auto">
    <path d="M0,0 L0,7 L7,3.5 Z" fill="#888888"/>
  </marker>
  <marker id="ao" markerWidth="7" markerHeight="7" refX="6" refY="3.5" orient="auto">
    <path d="M0,0 L0,7 L7,3.5 Z" fill="#FF8800"/>
  </marker>
  <marker id="ab" markerWidth="7" markerHeight="7" refX="6" refY="3.5" orient="auto">
    <path d="M0,0 L0,7 L7,3.5 Z" fill="#58DDFF"/>
  </marker>
</defs>

<!-- background -->
<rect width="760" height="210" fill="#08080E"/>

<!-- ── Group frame ── -->
<rect x="4" y="8" width="510" height="194" rx="10" fill="#0C0C18" stroke="#2C2C58" stroke-width="1"/>

<!-- ANT side label -->
<rect x="7" y="44" width="20" height="16" rx="2" fill="#001800"/>
<text x="17" y="55.5" text-anchor="middle" dominant-baseline="middle" fill="#00CC44" font-size="8" font-weight="bold" font-family="Arial,sans-serif">ANT</text>
<line x1="27" y1="52" x2="31" y2="52" stroke="#00CC44" stroke-width="1.5" marker-end="url(#ao)"/>

<!-- 12V side label -->
<rect x="7" y="144" width="20" height="16" rx="2" fill="#1A0900"/>
<text x="17" y="152" text-anchor="middle" dominant-baseline="middle" fill="#FF8800" font-size="8" font-weight="bold" font-family="Arial,sans-serif">12V</text>
<line x1="27" y1="152" x2="31" y2="152" stroke="#FF8800" stroke-width="1.5" marker-end="url(#ao)"/>

<!-- ATU100/130 box -->
<rect x="31" y="22" width="108" height="166" rx="6" fill="#161628" stroke="#2C2C58" stroke-width="1"/>
<text x="85" y="62" text-anchor="middle" fill="#FFFFFF" font-size="11" font-weight="bold" font-family="Arial,sans-serif">ATU100 / ATU130</text>
<text x="85" y="80" text-anchor="middle" fill="#8585B1" font-size="10" font-family="Arial,sans-serif">PIC MCU</text>
<line x1="55" y1="92" x2="115" y2="92" stroke="#2C2C58" stroke-width="1"/>
<text x="85" y="108" text-anchor="middle" fill="#555566" font-size="9" font-family="Arial,sans-serif">PIC16F1938</text>
<text x="85" y="121" text-anchor="middle" fill="#555566" font-size="9" font-family="Arial,sans-serif">32 MHz</text>
<text x="85" y="138" text-anchor="middle" fill="#444455" font-size="9" font-family="Arial,sans-serif">PIC18F2520</text>
<text x="85" y="151" text-anchor="middle" fill="#444455" font-size="9" font-family="Arial,sans-serif">16 MHz</text>
<line x1="55" y1="162" x2="115" y2="162" stroke="#2C2C58" stroke-width="1"/>
<text x="85" y="175" text-anchor="middle" fill="#444455" font-size="9" font-family="Arial,sans-serif">UART RB7/RB6</text>

<!-- UART label above arrows -->
<text x="168" y="30" text-anchor="middle" fill="#666677" font-size="9" font-family="Arial,sans-serif">UART  9600 baud</text>

<!-- Arrow ATU → Level Shifter -->
<line x1="139" y1="70" x2="178" y2="70" stroke="#888888" stroke-width="1.5" marker-end="url(#ag)"/>
<!-- Arrow ATU → DC-DC (12V) -->
<line x1="139" y1="150" x2="178" y2="150" stroke="#FF8800" stroke-width="1.5" marker-end="url(#ao)"/>

<!-- Level Shifter box -->
<rect x="180" y="52" width="86" height="38" rx="4" fill="#151500" stroke="#FFDD44" stroke-width="1"/>
<text x="223" y="68" text-anchor="middle" fill="#FFDD44" font-size="9" font-weight="bold" font-family="Arial,sans-serif">Level Shifter</text>
<text x="223" y="81" text-anchor="middle" fill="#AAAA33" font-size="9" font-family="Arial,sans-serif">5V ↔ 3V3</text>

<!-- DC-DC box -->
<rect x="180" y="132" width="86" height="38" rx="4" fill="#140800" stroke="#FF8800" stroke-width="1"/>
<text x="223" y="148" text-anchor="middle" fill="#FF8800" font-size="9" font-weight="bold" font-family="Arial,sans-serif">DC-DC Buck</text>
<text x="223" y="161" text-anchor="middle" fill="#AA5500" font-size="9" font-family="Arial,sans-serif">12V → 5V</text>

<!-- Merge arrows: Level Shifter + DC-DC → ATU Transiver -->
<line x1="266" y1="71" x2="285" y2="71" stroke="#888888" stroke-width="1.5"/>
<line x1="266" y1="151" x2="285" y2="151" stroke="#888888" stroke-width="1.5"/>
<line x1="285" y1="71"  x2="285" y2="105" stroke="#888888" stroke-width="1.5"/>
<line x1="285" y1="151" x2="285" y2="105" stroke="#888888" stroke-width="1.5"/>
<line x1="285" y1="105" x2="308" y2="105" stroke="#888888" stroke-width="1.5" marker-end="url(#ag)"/>

<!-- ATU Transiver box -->
<rect x="310" y="22" width="158" height="166" rx="6" fill="#161628" stroke="#2C2C58" stroke-width="1"/>
<text x="389" y="62" text-anchor="middle" fill="#FFFFFF" font-size="11" font-weight="bold" font-family="Arial,sans-serif">ATU Transiver</text>
<text x="389" y="80" text-anchor="middle" fill="#8585B1" font-size="10" font-family="Arial,sans-serif">ESP32</text>
<line x1="330" y1="92" x2="448" y2="92" stroke="#2C2C58" stroke-width="1"/>
<text x="389" y="108" text-anchor="middle" fill="#555566" font-size="9" font-family="Arial,sans-serif">Serial2 GPIO16=RX · GPIO17=TX</text>
<text x="389" y="121" text-anchor="middle" fill="#555566" font-size="9" font-family="Arial,sans-serif">9600 baud</text>
<text x="389" y="138" text-anchor="middle" fill="#444455" font-size="9" font-family="Arial,sans-serif">ESP-NOW bridge</text>
<text x="389" y="151" text-anchor="middle" fill="#444455" font-size="9" font-family="Arial,sans-serif">NVS pairing</text>
<line x1="330" y1="162" x2="448" y2="162" stroke="#2C2C58" stroke-width="1"/>
<text x="389" y="175" text-anchor="middle" fill="#444455" font-size="9" font-family="Arial,sans-serif">GPIO0 hold &gt;5s = unpair</text>

<!-- ── ESP-NOW wireless area ── -->
<!-- dashed link lines -->
<line x1="468" y1="105" x2="514" y2="105" stroke="#2C5870" stroke-width="1.5" stroke-dasharray="4,3"/>
<line x1="596" y1="105" x2="604" y2="105" stroke="#2C5870" stroke-width="1.5" stroke-dasharray="4,3" marker-end="url(#ab)"/>

<!-- WiFi icon centered at x=555, dot at y=125 -->
<circle cx="555" cy="125" r="3.5" fill="#58DDFF"/>
<path d="M544,125 A11,11 0 0,0 566,125" fill="none" stroke="#58DDFF" stroke-width="2.5" stroke-linecap="round"/>
<path d="M536,125 A19,19 0 0,0 574,125" fill="none" stroke="#58DDFF" stroke-width="2.5" stroke-linecap="round" opacity="0.7"/>
<path d="M527,125 A28,28 0 0,0 583,125" fill="none" stroke="#58DDFF" stroke-width="2.5" stroke-linecap="round" opacity="0.4"/>
<text x="555" y="88" text-anchor="middle" fill="#666688" font-size="9" font-family="Arial,sans-serif">ESP-NOW</text>

<!-- ── ATU Display box ── -->
<rect x="604" y="8" width="152" height="194" rx="6" fill="#161628" stroke="#2C2C58" stroke-width="1"/>
<text x="680" y="52" text-anchor="middle" fill="#FFFFFF" font-size="11" font-weight="bold" font-family="Arial,sans-serif">ATU Display</text>
<text x="680" y="70" text-anchor="middle" fill="#8585B1" font-size="10" font-family="Arial,sans-serif">ESP32 CYD</text>
<line x1="624" y1="82" x2="736" y2="82" stroke="#2C2C58" stroke-width="1"/>
<text x="680" y="96"  text-anchor="middle" fill="#555566" font-size="9" font-family="Arial,sans-serif">ST7789 · 3.2'' IPS</text>
<text x="680" y="109" text-anchor="middle" fill="#555566" font-size="9" font-family="Arial,sans-serif">320×240 · LVGL 9.2</text>
<text x="680" y="122" text-anchor="middle" fill="#444455" font-size="9" font-family="Arial,sans-serif">Touch XPT2046</text>
<text x="680" y="135" text-anchor="middle" fill="#444455" font-size="9" font-family="Arial,sans-serif">HSPI pins 12–15</text>
<text x="680" y="148" text-anchor="middle" fill="#444455" font-size="9" font-family="Arial,sans-serif">VSPI SD pins 18–19,23</text>
<line x1="624" y1="160" x2="736" y2="160" stroke="#2C2C58" stroke-width="1"/>
<text x="680" y="173" text-anchor="middle" fill="#444455" font-size="9" font-family="Arial,sans-serif">SD card OTA</text>
<text x="680" y="186" text-anchor="middle" fill="#444455" font-size="9" font-family="Arial,sans-serif">Montserrat 16–28pt</text>

</svg>
